<?xml version="1.0" encoding="UTF-8" standalone="no"?>
<svg
   xmlns:dc="http://purl.org/dc/elements/1.1/"
   xmlns:cc="http://creativecommons.org/ns#"
   xmlns:rdf="http://www.w3.org/1999/02/22-rdf-syntax-ns#"
   xmlns:svg="http://www.w3.org/2000/svg"
   xmlns="http://www.w3.org/2000/svg"
   xmlns:sodipodi="http://sodipodi.sourceforge.net/DTD/sodipodi-0.dtd"
   xmlns:inkscape="http://www.inkscape.org/namespaces/inkscape"
   width="24"
   height="24"
   viewBox="0 0 24 24"
   fill="none"
   stroke="#000"
   stroke-width="2"
   stroke-linecap="round"
   stroke-linejoin="round"
   version="1.1"
   id="svg4491"
   sodipodi:docname="box.svg"
   inkscape:version="0.92.1 r15371">
  <metadata
     id="metadata4497">
    <rdf:RDF>
      <cc:Work
         rdf:about="">
        <dc:format>image/svg+xml</dc:format>
        <dc:type
           rdf:resource="http://purl.org/dc/dcmitype/StillImage" />
      </cc:Work>
    </rdf:RDF>
  </metadata>
  <defs
     id="defs4495" />
  <sodipodi:namedview
     pagecolor="#ffffff"
     bordercolor="#666666"
     borderopacity="1"
     objecttolerance="10"
     gridtolerance="10"
     guidetolerance="10"
     inkscape:pageopacity="0"
     inkscape:pageshadow="2"
     inkscape:window-width="1920"
     inkscape:window-height="1017"
     id="namedview4493"
     showgrid="false"
     inkscape:zoom="33.5"
     inkscape:cx="12"
     inkscape:cy="12"
     inkscape:window-x="-4"
     inkscape:window-y="-8"
     inkscape:window-maximized="1"
     inkscape:current-layer="svg4491" />
  <path
     d="M12.89,1.45l8,4A2,2,0,0,1,22,7.24v9.53a2,2,0,0,1-1.11,1.79l-8,4a2,2,0,0,1-1.79,0l-8-4A2,2,0,0,1,2,16.76V7.24A2,2,0,0,1,3.11,5.45l8-4A2,2,0,0,1,12.89,1.45Z"
     id="path4485"
     style="stroke:#ddddde;stroke-opacity:1" />
  <polyline
     points="2.32 6.16 12 11 21.68 6.16"
     id="polyline4487"
     style="stroke:#ddddde;stroke-opacity:1" />
  <line
     x1="12"
     y1="22.76"
     x2="12"
     y2="11"
     id="line4489"
     style="stroke:#ddddde;stroke-opacity:1" />
</svg>
