<?xml version="1.0" encoding="UTF-8" standalone="no"?>
<svg
   xmlns:dc="http://purl.org/dc/elements/1.1/"
   xmlns:cc="http://creativecommons.org/ns#"
   xmlns:rdf="http://www.w3.org/1999/02/22-rdf-syntax-ns#"
   xmlns:svg="http://www.w3.org/2000/svg"
   xmlns="http://www.w3.org/2000/svg"
   xmlns:sodipodi="http://sodipodi.sourceforge.net/DTD/sodipodi-0.dtd"
   xmlns:inkscape="http://www.inkscape.org/namespaces/inkscape"
   width="24"
   height="24"
   viewBox="0 0 24 24"
   fill="none"
   stroke="#000"
   stroke-width="2"
   stroke-linecap="round"
   stroke-linejoin="round"
   version="1.1"
   id="svg4558"
   sodipodi:docname="cog.svg"
   inkscape:version="0.92.1 r15371">
  <metadata
     id="metadata4564">
    <rdf:RDF>
      <cc:Work
         rdf:about="">
        <dc:format>image/svg+xml</dc:format>
        <dc:type
           rdf:resource="http://purl.org/dc/dcmitype/StillImage" />
      </cc:Work>
    </rdf:RDF>
  </metadata>
  <defs
     id="defs4562" />
  <sodipodi:namedview
     pagecolor="#ffffff"
     bordercolor="#666666"
     borderopacity="1"
     objecttolerance="10"
     gridtolerance="10"
     guidetolerance="10"
     inkscape:pageopacity="0"
     inkscape:pageshadow="2"
     inkscape:window-width="1204"
     inkscape:window-height="785"
     id="namedview4560"
     showgrid="false"
     inkscape:zoom="9.8333333"
     inkscape:cx="12"
     inkscape:cy="12"
     inkscape:window-x="0"
     inkscape:window-y="0"
     inkscape:window-maximized="0"
     inkscape:current-layer="svg4558" />
  <path
     d="M19.4,15v0a1.65,1.65,0,0,0,.33,1.82l.06.06a2,2,0,0,1,0,2.83h0a2,2,0,0,1-2.83,0l-.06-.06a1.65,1.65,0,0,0-1.82-.33h0a1.65,1.65,0,0,0-1,1.51V21a2,2,0,0,1-2,2h0a2,2,0,0,1-2-2v-.09A1.65,1.65,0,0,0,9,19.4h0a1.65,1.65,0,0,0-1.82.33l-.06.06a2,2,0,0,1-2.83,0h0a2,2,0,0,1,0-2.83l.06-.06a1.65,1.65,0,0,0,.33-1.82v0a1.65,1.65,0,0,0-1.51-1H3a2,2,0,0,1-2-2H1a2,2,0,0,1,2-2h.09A1.65,1.65,0,0,0,4.6,9v0a1.65,1.65,0,0,0-.33-1.82l-.06-.06a2,2,0,0,1,0-2.83h0a2,2,0,0,1,2.83,0l.06.06a1.65,1.65,0,0,0,1.82.33H9a1.65,1.65,0,0,0,1-1.51V3a2,2,0,0,1,2-2h0a2,2,0,0,1,2,2v.09A1.65,1.65,0,0,0,15,4.6h0a1.65,1.65,0,0,0,1.82-.33l.06-.06a2,2,0,0,1,2.83,0h0a2,2,0,0,1,0,2.83l-.06.06a1.65,1.65,0,0,0-.33,1.82V9a1.65,1.65,0,0,0,1.51,1H21a2,2,0,0,1,2,2h0a2,2,0,0,1-2,2h-.09A1.65,1.65,0,0,0,19.4,15Z"
     id="path4554"
     style="stroke:#fefefe;stroke-opacity:1" />
  <circle
     cx="12"
     cy="12"
     r="3"
     id="circle4556"
     style="stroke:#ffffff;stroke-opacity:1" />
</svg>
